<mxfile host="app.diagrams.net" modified="2023-08-25T16:56:32.026Z" agent="Mozilla/5.0 (X11; Linux x86_64; rv:103.0) Gecko/20100101 Firefox/103.0" etag="pFFWbYSSshu99FfYsvMJ" version="21.6.9" type="github">
  <diagram id="C5RBs43oDa-KdzZeNtuy" name="Page-1">
    <mxGraphModel dx="1434" dy="718" grid="1" gridSize="10" guides="1" tooltips="1" connect="1" arrows="1" fold="1" page="1" pageScale="1" pageWidth="827" pageHeight="1169" math="0" shadow="0">
      <root>
        <mxCell id="WIyWlLk6GJQsqaUBKTNV-0" />
        <mxCell id="WIyWlLk6GJQsqaUBKTNV-1" parent="WIyWlLk6GJQsqaUBKTNV-0" />
        <mxCell id="naHcE_GE0SlLNrRKecmw-6" style="edgeStyle=orthogonalEdgeStyle;rounded=0;orthogonalLoop=1;jettySize=auto;html=1;exitX=1;exitY=0.5;exitDx=0;exitDy=0;" edge="1" parent="WIyWlLk6GJQsqaUBKTNV-1" source="naHcE_GE0SlLNrRKecmw-0" target="naHcE_GE0SlLNrRKecmw-7">
          <mxGeometry relative="1" as="geometry">
            <mxPoint x="260" y="105" as="targetPoint" />
          </mxGeometry>
        </mxCell>
        <mxCell id="naHcE_GE0SlLNrRKecmw-19" style="edgeStyle=orthogonalEdgeStyle;rounded=0;orthogonalLoop=1;jettySize=auto;html=1;exitX=0.5;exitY=1;exitDx=0;exitDy=0;" edge="1" parent="WIyWlLk6GJQsqaUBKTNV-1" source="naHcE_GE0SlLNrRKecmw-0">
          <mxGeometry relative="1" as="geometry">
            <mxPoint x="85" y="200" as="targetPoint" />
          </mxGeometry>
        </mxCell>
        <mxCell id="naHcE_GE0SlLNrRKecmw-0" value="CLIENTE" style="swimlane;whiteSpace=wrap;html=1;" vertex="1" parent="WIyWlLk6GJQsqaUBKTNV-1">
          <mxGeometry x="20" y="50" width="130" height="110" as="geometry" />
        </mxCell>
        <mxCell id="naHcE_GE0SlLNrRKecmw-1" value="&lt;div&gt;RG&lt;/div&gt;" style="text;html=1;align=center;verticalAlign=middle;resizable=0;points=[];autosize=1;strokeColor=none;fillColor=none;" vertex="1" parent="naHcE_GE0SlLNrRKecmw-0">
          <mxGeometry x="-10" y="20" width="40" height="30" as="geometry" />
        </mxCell>
        <mxCell id="naHcE_GE0SlLNrRKecmw-3" value="NOME" style="text;html=1;align=center;verticalAlign=middle;resizable=0;points=[];autosize=1;strokeColor=none;fillColor=none;" vertex="1" parent="naHcE_GE0SlLNrRKecmw-0">
          <mxGeometry x="-10" y="40" width="60" height="30" as="geometry" />
        </mxCell>
        <mxCell id="naHcE_GE0SlLNrRKecmw-4" value="NUMERO" style="text;html=1;align=center;verticalAlign=middle;resizable=0;points=[];autosize=1;strokeColor=none;fillColor=none;" vertex="1" parent="naHcE_GE0SlLNrRKecmw-0">
          <mxGeometry x="-10" y="60" width="80" height="30" as="geometry" />
        </mxCell>
        <mxCell id="naHcE_GE0SlLNrRKecmw-5" value="ENDEREÇO" style="text;html=1;align=center;verticalAlign=middle;resizable=0;points=[];autosize=1;strokeColor=none;fillColor=none;" vertex="1" parent="naHcE_GE0SlLNrRKecmw-0">
          <mxGeometry x="-10" y="80" width="90" height="30" as="geometry" />
        </mxCell>
        <mxCell id="naHcE_GE0SlLNrRKecmw-8" style="edgeStyle=orthogonalEdgeStyle;rounded=0;orthogonalLoop=1;jettySize=auto;html=1;exitX=1;exitY=0.5;exitDx=0;exitDy=0;" edge="1" parent="WIyWlLk6GJQsqaUBKTNV-1" source="naHcE_GE0SlLNrRKecmw-7" target="naHcE_GE0SlLNrRKecmw-9">
          <mxGeometry relative="1" as="geometry">
            <mxPoint x="380" y="105" as="targetPoint" />
          </mxGeometry>
        </mxCell>
        <mxCell id="naHcE_GE0SlLNrRKecmw-7" value="TER" style="rhombus;whiteSpace=wrap;html=1;" vertex="1" parent="WIyWlLk6GJQsqaUBKTNV-1">
          <mxGeometry x="220" y="80" width="80" height="50" as="geometry" />
        </mxCell>
        <mxCell id="naHcE_GE0SlLNrRKecmw-10" style="edgeStyle=orthogonalEdgeStyle;rounded=0;orthogonalLoop=1;jettySize=auto;html=1;exitX=0.5;exitY=1;exitDx=0;exitDy=0;" edge="1" parent="WIyWlLk6GJQsqaUBKTNV-1" source="naHcE_GE0SlLNrRKecmw-9">
          <mxGeometry relative="1" as="geometry">
            <mxPoint x="380" y="180" as="targetPoint" />
          </mxGeometry>
        </mxCell>
        <mxCell id="naHcE_GE0SlLNrRKecmw-9" value="FLORICULTURA" style="rounded=0;whiteSpace=wrap;html=1;" vertex="1" parent="WIyWlLk6GJQsqaUBKTNV-1">
          <mxGeometry x="320" y="90" width="120" height="30" as="geometry" />
        </mxCell>
        <mxCell id="naHcE_GE0SlLNrRKecmw-13" style="edgeStyle=orthogonalEdgeStyle;rounded=0;orthogonalLoop=1;jettySize=auto;html=1;exitX=0.5;exitY=1;exitDx=0;exitDy=0;" edge="1" parent="WIyWlLk6GJQsqaUBKTNV-1" source="naHcE_GE0SlLNrRKecmw-11">
          <mxGeometry relative="1" as="geometry">
            <mxPoint x="380" y="270" as="targetPoint" />
          </mxGeometry>
        </mxCell>
        <mxCell id="naHcE_GE0SlLNrRKecmw-11" value="TER" style="rhombus;whiteSpace=wrap;html=1;" vertex="1" parent="WIyWlLk6GJQsqaUBKTNV-1">
          <mxGeometry x="350" y="180" width="60" height="50" as="geometry" />
        </mxCell>
        <mxCell id="naHcE_GE0SlLNrRKecmw-39" style="edgeStyle=orthogonalEdgeStyle;rounded=0;orthogonalLoop=1;jettySize=auto;html=1;exitX=0;exitY=0.5;exitDx=0;exitDy=0;entryX=1;entryY=0.5;entryDx=0;entryDy=0;" edge="1" parent="WIyWlLk6GJQsqaUBKTNV-1" source="naHcE_GE0SlLNrRKecmw-14" target="naHcE_GE0SlLNrRKecmw-20">
          <mxGeometry relative="1" as="geometry" />
        </mxCell>
        <mxCell id="naHcE_GE0SlLNrRKecmw-14" value="PRODUTO" style="swimlane;whiteSpace=wrap;html=1;" vertex="1" parent="WIyWlLk6GJQsqaUBKTNV-1">
          <mxGeometry x="310" y="268" width="140" height="120" as="geometry" />
        </mxCell>
        <mxCell id="naHcE_GE0SlLNrRKecmw-16" value="TIPO" style="text;html=1;align=center;verticalAlign=middle;resizable=0;points=[];autosize=1;strokeColor=none;fillColor=none;" vertex="1" parent="naHcE_GE0SlLNrRKecmw-14">
          <mxGeometry x="-10" y="45" width="50" height="30" as="geometry" />
        </mxCell>
        <mxCell id="naHcE_GE0SlLNrRKecmw-18" value="QUANTIDADE" style="text;html=1;align=center;verticalAlign=middle;resizable=0;points=[];autosize=1;strokeColor=none;fillColor=none;" vertex="1" parent="naHcE_GE0SlLNrRKecmw-14">
          <mxGeometry x="-10" y="88" width="100" height="30" as="geometry" />
        </mxCell>
        <mxCell id="naHcE_GE0SlLNrRKecmw-17" value="PREÇO" style="text;html=1;align=center;verticalAlign=middle;resizable=0;points=[];autosize=1;strokeColor=none;fillColor=none;" vertex="1" parent="naHcE_GE0SlLNrRKecmw-14">
          <mxGeometry x="-10" y="68" width="70" height="30" as="geometry" />
        </mxCell>
        <mxCell id="naHcE_GE0SlLNrRKecmw-15" value="NOME" style="text;html=1;align=center;verticalAlign=middle;resizable=0;points=[];autosize=1;strokeColor=none;fillColor=none;" vertex="1" parent="naHcE_GE0SlLNrRKecmw-14">
          <mxGeometry x="-10" y="28" width="60" height="30" as="geometry" />
        </mxCell>
        <mxCell id="naHcE_GE0SlLNrRKecmw-34" style="edgeStyle=orthogonalEdgeStyle;rounded=0;orthogonalLoop=1;jettySize=auto;html=1;exitX=0.5;exitY=1;exitDx=0;exitDy=0;" edge="1" parent="WIyWlLk6GJQsqaUBKTNV-1" source="naHcE_GE0SlLNrRKecmw-20">
          <mxGeometry relative="1" as="geometry">
            <mxPoint x="85" y="280" as="targetPoint" />
          </mxGeometry>
        </mxCell>
        <mxCell id="naHcE_GE0SlLNrRKecmw-20" value="COMPRA" style="rhombus;whiteSpace=wrap;html=1;" vertex="1" parent="WIyWlLk6GJQsqaUBKTNV-1">
          <mxGeometry x="45" y="200" width="80" height="40" as="geometry" />
        </mxCell>
        <mxCell id="naHcE_GE0SlLNrRKecmw-28" value="1" style="text;html=1;align=center;verticalAlign=middle;resizable=0;points=[];autosize=1;strokeColor=none;fillColor=none;" vertex="1" parent="WIyWlLk6GJQsqaUBKTNV-1">
          <mxGeometry x="85" y="158" width="30" height="30" as="geometry" />
        </mxCell>
        <mxCell id="naHcE_GE0SlLNrRKecmw-29" value="N" style="text;html=1;align=center;verticalAlign=middle;resizable=0;points=[];autosize=1;strokeColor=none;fillColor=none;" vertex="1" parent="WIyWlLk6GJQsqaUBKTNV-1">
          <mxGeometry x="185" y="298" width="30" height="30" as="geometry" />
        </mxCell>
        <mxCell id="naHcE_GE0SlLNrRKecmw-30" value="N" style="text;html=1;align=center;verticalAlign=middle;resizable=0;points=[];autosize=1;strokeColor=none;fillColor=none;" vertex="1" parent="WIyWlLk6GJQsqaUBKTNV-1">
          <mxGeometry x="385" y="238" width="30" height="30" as="geometry" />
        </mxCell>
        <mxCell id="naHcE_GE0SlLNrRKecmw-31" value="1" style="text;html=1;align=center;verticalAlign=middle;resizable=0;points=[];autosize=1;strokeColor=none;fillColor=none;" vertex="1" parent="WIyWlLk6GJQsqaUBKTNV-1">
          <mxGeometry x="335" y="118" width="30" height="30" as="geometry" />
        </mxCell>
        <mxCell id="naHcE_GE0SlLNrRKecmw-32" value="1" style="text;html=1;align=center;verticalAlign=middle;resizable=0;points=[];autosize=1;strokeColor=none;fillColor=none;" vertex="1" parent="WIyWlLk6GJQsqaUBKTNV-1">
          <mxGeometry x="285" y="78" width="30" height="30" as="geometry" />
        </mxCell>
        <mxCell id="naHcE_GE0SlLNrRKecmw-33" value="N" style="text;html=1;align=center;verticalAlign=middle;resizable=0;points=[];autosize=1;strokeColor=none;fillColor=none;" vertex="1" parent="WIyWlLk6GJQsqaUBKTNV-1">
          <mxGeometry x="165" y="68" width="30" height="30" as="geometry" />
        </mxCell>
        <mxCell id="naHcE_GE0SlLNrRKecmw-35" value="DATA" style="text;html=1;align=center;verticalAlign=middle;resizable=0;points=[];autosize=1;strokeColor=none;fillColor=none;" vertex="1" parent="WIyWlLk6GJQsqaUBKTNV-1">
          <mxGeometry x="55" y="278" width="50" height="30" as="geometry" />
        </mxCell>
      </root>
    </mxGraphModel>
  </diagram>
</mxfile>
